<svg width="111" height="15" viewBox="0 0 111 15" fill="none" xmlns="http://www.w3.org/2000/svg">
<path d="M7.10417 6.22917C8.45139 6.39583 9.47917 6.85417 10.1875 7.60417C10.8958 8.35417 11.25 9.29167 11.25 10.4167C11.25 11.2639 11.0347 12.0347 10.6042 12.7292C10.1736 13.4236 9.52083 13.9792 8.64583 14.3958C7.78472 14.7986 6.72917 15 5.47917 15C4.4375 15 3.43056 14.8542 2.45833 14.5625C1.5 14.2569 0.680555 13.8403 0 13.3125L1.16667 11.2083C1.69444 11.6528 2.33333 12.0069 3.08333 12.2708C3.84722 12.5208 4.63194 12.6458 5.4375 12.6458C6.39583 12.6458 7.14583 12.4514 7.6875 12.0625C8.24305 11.6597 8.52083 11.1181 8.52083 10.4375C8.52083 9.75694 8.25694 9.22917 7.72917 8.85417C7.21528 8.46528 6.42361 8.27083 5.35417 8.27083H4.02083V6.41667L7.33333 2.47917H0.708333V0.208333H10.6458V2.02083L7.10417 6.22917Z" fill="#F9F9F9"/>
<path d="M14.3131 15C13.1465 15 12.1048 14.7083 11.1881 14.125C10.2715 13.5278 9.54926 12.6667 9.02148 11.5417C8.49371 10.4028 8.22982 9.05555 8.22982 7.5C8.22982 5.94444 8.49371 4.60417 9.02148 3.47917C9.54926 2.34028 10.2715 1.47917 11.1881 0.895833C12.1048 0.298611 13.1465 0 14.3131 0C15.4798 0 16.5215 0.298611 17.4381 0.895833C18.3687 1.47917 19.0979 2.34028 19.6257 3.47917C20.1534 4.60417 20.4173 5.94444 20.4173 7.5C20.4173 9.05555 20.1534 10.4028 19.6257 11.5417C19.0979 12.6667 18.3687 13.5278 17.4381 14.125C16.5215 14.7083 15.4798 15 14.3131 15ZM14.3131 12.6458C15.3548 12.6458 16.1743 12.2153 16.7715 11.3542C17.3826 10.4931 17.6882 9.20833 17.6882 7.5C17.6882 5.79167 17.3826 4.50694 16.7715 3.64583C16.1743 2.78472 15.3548 2.35417 14.3131 2.35417C13.2854 2.35417 12.4659 2.78472 11.8548 3.64583C11.2576 4.50694 10.959 5.79167 10.959 7.5C10.959 9.20833 11.2576 10.4931 11.8548 11.3542C12.4659 12.2153 13.2854 12.6458 14.3131 12.6458Z" fill="#F9F9F9"/>
<path d="M15.3447 8.70677L16.8638 7.18768L15.3447 5.66858M13.3193 5.66858L11.8002 7.18768L13.3193 8.70677" stroke="#3FA5D0" stroke-linecap="round" stroke-linejoin="round"/>
<path d="M24.996 3.6H28.812C29.724 3.6 30.528 3.776 31.224 4.128C31.928 4.472 32.472 4.96 32.856 5.592C33.248 6.224 33.444 6.96 33.444 7.8C33.444 8.64 33.248 9.376 32.856 10.008C32.472 10.64 31.928 11.132 31.224 11.484C30.528 11.828 29.724 12 28.812 12H24.996V3.6ZM28.716 10.404C29.556 10.404 30.224 10.172 30.72 9.708C31.224 9.236 31.476 8.6 31.476 7.8C31.476 7 31.224 6.368 30.72 5.904C30.224 5.432 29.556 5.196 28.716 5.196H26.94V10.404H28.716ZM39.5449 10.2H35.6449L34.9009 12H32.9089L36.6529 3.6H38.5729L42.3289 12H40.2889L39.5449 10.2ZM38.9329 8.724L37.6009 5.508L36.2689 8.724H38.9329ZM45.9368 9.024V12H43.9928V9L40.7408 3.6H42.8048L45.0488 7.332L47.2928 3.6H49.2008L45.9368 9.024ZM51.8183 12.144C51.1543 12.144 50.5103 12.056 49.8863 11.88C49.2703 11.696 48.7743 11.46 48.3983 11.172L49.0583 9.708C49.4183 9.972 49.8463 10.184 50.3423 10.344C50.8383 10.504 51.3343 10.584 51.8303 10.584C52.3823 10.584 52.7903 10.504 53.0543 10.344C53.3183 10.176 53.4503 9.956 53.4503 9.684C53.4503 9.484 53.3703 9.32 53.2103 9.192C53.0583 9.056 52.8583 8.948 52.6103 8.868C52.3703 8.788 52.0423 8.7 51.6263 8.604C50.9863 8.452 50.4623 8.3 50.0543 8.148C49.6463 7.996 49.2943 7.752 48.9983 7.416C48.7103 7.08 48.5663 6.632 48.5663 6.072C48.5663 5.584 48.6983 5.144 48.9623 4.752C49.2263 4.352 49.6223 4.036 50.1503 3.804C50.6863 3.572 51.3383 3.456 52.1063 3.456C52.6423 3.456 53.1663 3.52 53.6783 3.648C54.1903 3.776 54.6383 3.96 55.0223 4.2L54.4223 5.676C53.6463 5.236 52.8703 5.016 52.0943 5.016C51.5503 5.016 51.1463 5.104 50.8823 5.28C50.6263 5.456 50.4983 5.688 50.4983 5.976C50.4983 6.264 50.6463 6.48 50.9423 6.624C51.2463 6.76 51.7063 6.896 52.3223 7.032C52.9623 7.184 53.4863 7.336 53.8943 7.488C54.3023 7.64 54.6503 7.88 54.9383 8.208C55.2343 8.536 55.3823 8.98 55.3823 9.54C55.3823 10.02 55.2463 10.46 54.9743 10.86C54.7103 11.252 54.3103 11.564 53.7743 11.796C53.2383 12.028 52.5863 12.144 51.8183 12.144ZM62.6171 12.144C61.7451 12.144 60.9571 11.956 60.2531 11.58C59.5571 11.204 59.0091 10.688 58.6091 10.032C58.2171 9.368 58.0211 8.624 58.0211 7.8C58.0211 6.976 58.2171 6.236 58.6091 5.58C59.0091 4.916 59.5571 4.396 60.2531 4.02C60.9571 3.644 61.7451 3.456 62.6171 3.456C63.4891 3.456 64.2731 3.644 64.9691 4.02C65.6651 4.396 66.2131 4.916 66.6131 5.58C67.0131 6.236 67.2131 6.976 67.2131 7.8C67.2131 8.624 67.0131 9.368 66.6131 10.032C66.2131 10.688 65.6651 11.204 64.9691 11.58C64.2731 11.956 63.4891 12.144 62.6171 12.144ZM62.6171 10.488C63.1131 10.488 63.5611 10.376 63.9611 10.152C64.3611 9.92 64.6731 9.6 64.8971 9.192C65.1291 8.784 65.2451 8.32 65.2451 7.8C65.2451 7.28 65.1291 6.816 64.8971 6.408C64.6731 6 64.3611 5.684 63.9611 5.46C63.5611 5.228 63.1131 5.112 62.6171 5.112C62.1211 5.112 61.6731 5.228 61.2731 5.46C60.8731 5.684 60.5571 6 60.3251 6.408C60.1011 6.816 59.9891 7.28 59.9891 7.8C59.9891 8.32 60.1011 8.784 60.3251 9.192C60.5571 9.6 60.8731 9.92 61.2731 10.152C61.6731 10.376 62.1211 10.488 62.6171 10.488ZM69.8381 5.16V7.38H73.7261V8.94H69.8381V12H67.8941V3.6H74.2421V5.16H69.8381ZM81.4166 12.144C80.5606 12.144 79.7846 11.96 79.0886 11.592C78.4006 11.216 77.8566 10.7 77.4566 10.044C77.0646 9.38 76.8686 8.632 76.8686 7.8C76.8686 6.968 77.0646 6.224 77.4566 5.568C77.8566 4.904 78.4006 4.388 79.0886 4.02C79.7846 3.644 80.5646 3.456 81.4286 3.456C82.1566 3.456 82.8126 3.584 83.3966 3.84C83.9886 4.096 84.4846 4.464 84.8846 4.944L83.6366 6.096C83.0686 5.44 82.3646 5.112 81.5246 5.112C81.0046 5.112 80.5406 5.228 80.1326 5.46C79.7246 5.684 79.4046 6 79.1726 6.408C78.9486 6.816 78.8366 7.28 78.8366 7.8C78.8366 8.32 78.9486 8.784 79.1726 9.192C79.4046 9.6 79.7246 9.92 80.1326 10.152C80.5406 10.376 81.0046 10.488 81.5246 10.488C82.3646 10.488 83.0686 10.156 83.6366 9.492L84.8846 10.644C84.4846 11.132 83.9886 11.504 83.3966 11.76C82.8046 12.016 82.1446 12.144 81.4166 12.144ZM89.3096 12.144C88.4376 12.144 87.6496 11.956 86.9456 11.58C86.2496 11.204 85.7016 10.688 85.3016 10.032C84.9096 9.368 84.7136 8.624 84.7136 7.8C84.7136 6.976 84.9096 6.236 85.3016 5.58C85.7016 4.916 86.2496 4.396 86.9456 4.02C87.6496 3.644 88.4376 3.456 89.3096 3.456C90.1816 3.456 90.9656 3.644 91.6616 4.02C92.3576 4.396 92.9056 4.916 93.3056 5.58C93.7056 6.236 93.9056 6.976 93.9056 7.8C93.9056 8.624 93.7056 9.368 93.3056 10.032C92.9056 10.688 92.3576 11.204 91.6616 11.58C90.9656 11.956 90.1816 12.144 89.3096 12.144ZM89.3096 10.488C89.8056 10.488 90.2536 10.376 90.6536 10.152C91.0536 9.92 91.3656 9.6 91.5896 9.192C91.8216 8.784 91.9376 8.32 91.9376 7.8C91.9376 7.28 91.8216 6.816 91.5896 6.408C91.3656 6 91.0536 5.684 90.6536 5.46C90.2536 5.228 89.8056 5.112 89.3096 5.112C88.8136 5.112 88.3656 5.228 87.9656 5.46C87.5656 5.684 87.2496 6 87.0176 6.408C86.7936 6.816 86.6816 7.28 86.6816 7.8C86.6816 8.32 86.7936 8.784 87.0176 9.192C87.2496 9.6 87.5656 9.92 87.9656 10.152C88.3656 10.376 88.8136 10.488 89.3096 10.488ZM94.5866 3.6H98.4026C99.3146 3.6 100.119 3.776 100.815 4.128C101.519 4.472 102.063 4.96 102.447 5.592C102.839 6.224 103.035 6.96 103.035 7.8C103.035 8.64 102.839 9.376 102.447 10.008C102.063 10.64 101.519 11.132 100.815 11.484C100.119 11.828 99.3146 12 98.4026 12H94.5866V3.6ZM98.3066 10.404C99.1466 10.404 99.8146 10.172 100.311 9.708C100.815 9.236 101.067 8.6 101.067 7.8C101.067 7 100.815 6.368 100.311 5.904C99.8146 5.432 99.1466 5.196 98.3066 5.196H96.5306V10.404H98.3066ZM110.225 10.44V12H103.721V3.6H110.069V5.16H105.653V6.984H109.553V8.496H105.653V10.44H110.225Z" fill="#F9F9F9"/>
</svg>
