<svg width="18" height="16" viewBox="0 0 18 16" fill="none" xmlns="http://www.w3.org/2000/svg">
<path d="M4.41675 15.5H1.50008C1.04175 15.5 0.666748 15.125 0.666748 14.6667V6.33333C0.666748 5.875 1.04175 5.5 1.50008 5.5H4.41675C4.87508 5.5 5.25008 5.875 5.25008 6.33333V14.6667C5.25008 15.125 4.87508 15.5 4.41675 15.5ZM10.4584 0.5H7.54175C7.08342 0.5 6.70842 0.875 6.70842 1.33333V14.6667C6.70842 15.125 7.08342 15.5 7.54175 15.5H10.4584C10.9167 15.5 11.2917 15.125 11.2917 14.6667V1.33333C11.2917 0.875 10.9167 0.5 10.4584 0.5ZM16.5001 7.16667H13.5834C13.1251 7.16667 12.7501 7.54167 12.7501 8V14.6667C12.7501 15.125 13.1251 15.5 13.5834 15.5H16.5001C16.9584 15.5 17.3334 15.125 17.3334 14.6667V8C17.3334 7.54167 16.9584 7.16667 16.5001 7.16667Z" fill="white"/>
</svg>
